#N canvas 87 218 1065 574 10;
#X obj 65 160 int;
#X obj 94 159 + 1;
#X obj 204 165 t f f f;
#X obj 150 263 t b f;
#X obj 134 161 spigot;
#X obj 62 107 t b b;
#X msg 107 109 1;
#X obj 172 242 pipe 20;
#X msg 61 132 0;
#X floatatom 198 120 5 0 0 0 - - -;
#X msg 250 117 bang;
#X obj 269 141 t b 0;
#X obj 239 3 inlet;
#X obj 224 65 *;
#X obj 126 75 del 30;
#X obj 18 82 s pd-sub;
#X msg 19 61 clear;
#X obj 161 33 t b b f f f;
#X obj 360 6 inlet;
#X obj 148 304 pack f f f f f;
#X obj 300 220 + 1;
#X obj 353 221 + 1;
#X msg 483 264 create;
#X msg 500 295 destroy;
#X text 610 371 V;
#X text 610 361 |;
#X text 611 238 |;
#X text 611 254 |;
#X text 611 268 |;
#X text 611 285 |;
#X text 611 314 |;
#X text 611 330 |;
#X text 611 344 |;
#X obj 508 327 r mycommand;
#X msg 669 334 clear;
#X msg 747 293 xsize 12;
#X msg 814 294 ysize 12;
#X msg 673 272 width \$1;
#X msg 671 298 height \$1;
#X obj 530 202 r GUI;
#X obj 530 229 sel 0 1;
#X obj 203 193 mod;
#X obj 253 194 div;
#X obj 196 90 moses;
#X obj 244 36 f;
#X obj 356 42 f;
#X obj 475 9 inlet;
#X msg 475 32 bang;
#X obj 483 231 spigot;
#X obj 475 54 t b b b;
#X obj 253 237 * 25;
#X obj 201 220 * 150;
#X obj 483 391 unauthorized/blinkenlights 7 7 30 30;
#X msg 148 327 \; pd-sub obj \$1 \$2 myclapper2 \$3 \$4 \$5 \;;
#X connect 0 0 4 0;
#X connect 0 0 1 0;
#X connect 1 0 0 1;
#X connect 2 0 41 0;
#X connect 2 1 42 0;
#X connect 2 2 19 2;
#X connect 3 0 0 0;
#X connect 3 1 19 0;
#X connect 4 0 43 0;
#X connect 5 0 8 0;
#X connect 5 1 6 0;
#X connect 6 0 4 1;
#X connect 7 0 3 0;
#X connect 8 0 0 0;
#X connect 9 0 2 0;
#X connect 10 0 11 0;
#X connect 11 0 8 0;
#X connect 11 1 4 1;
#X connect 12 0 37 0;
#X connect 12 0 44 1;
#X connect 13 0 43 1;
#X connect 14 0 5 0;
#X connect 16 0 15 0;
#X connect 17 0 14 0;
#X connect 17 1 16 0;
#X connect 17 2 41 1;
#X connect 17 3 42 1;
#X connect 17 4 13 0;
#X connect 18 0 38 0;
#X connect 18 0 45 1;
#X connect 19 0 53 0;
#X connect 20 0 19 3;
#X connect 21 0 19 4;
#X connect 22 0 52 0;
#X connect 23 0 52 0;
#X connect 33 0 52 0;
#X connect 34 0 52 0;
#X connect 35 0 52 0;
#X connect 36 0 52 0;
#X connect 37 0 52 0;
#X connect 38 0 52 0;
#X connect 39 0 40 0;
#X connect 39 0 48 1;
#X connect 40 0 23 0;
#X connect 40 1 22 0;
#X connect 41 0 20 0;
#X connect 41 0 51 0;
#X connect 42 0 21 0;
#X connect 42 0 50 0;
#X connect 43 0 9 0;
#X connect 43 1 10 0;
#X connect 44 0 17 0;
#X connect 45 0 13 1;
#X connect 46 0 47 0;
#X connect 47 0 49 0;
#X connect 48 0 22 0;
#X connect 49 0 44 0;
#X connect 49 1 45 0;
#X connect 49 2 48 0;
#X connect 50 0 19 1;
#X connect 51 0 7 0;
