#N canvas 0 0 454 304 10;
#X obj 215 115 inlet;
#X obj 227 230 outlet;
#X obj 227 202 /;
#X obj 215 152 t b f;
#X msg 172 177 60000;
#X connect 0 0 3 0;
#X connect 2 0 1 0;
#X connect 3 0 4 0;
#X connect 3 1 2 1;
#X connect 4 0 2 0;
