#N canvas 24 255 863 440 10;
#X obj 106 75 inlet~;
#X obj 106 156 t b;
#X obj 167 212 outlet;
#X obj 133 184 list split 1;
#X obj 303 382 s bpm;
#X obj 106 127 bonk~;
#X obj 223 74 loadbang;
#X obj 285 173 spigot;
#X obj 285 211 s real_clap;
#X obj 223 382 s ooi;
#X obj 318 115 r input;
#X obj 303 354 ooi2bpm;
#X text 101 46 audio in;
#X text 106 243 mouse clicks in;
#X text 113 210 strength;
#X text 268 227 send bang for;
#X text 268 239 detected claps;
#X text 270 251 if clapping is;
#X text 269 263 selected as input;
#X obj 119 260 inlet;
#X msg -43 110 write test_2class.txt;
#X msg 51 30 learn 0;
#X msg -62 152 read test_2class.txt;
#X obj 220 205 sel 0 1;
#X obj 119 337 rhythm_estimator \$0-re;
#X obj 169 -5 r train_on;
#X obj 169 20 sel 1;
#X obj -62 -9 r train_done;
#X obj -62 13 t b b b;
#X obj 13 202 s clap_type;
#X obj 382 -7 loadbang;
#X msg 169 47 learn 10;
#X obj 282 -7 r read_default;
#X obj 136 370 clip 10 1500;
#X obj 561 348 s var_ooi;
#X obj 560 258 get_ooi;
#X obj 641 304 sqrt;
#X obj 677 352 s int_tempo_dev;
#X obj 318 143 == 1;
#X msg 223 311 set ioi_resolution 8;
#X obj -19 227 list split 1;
#X obj -22 251 > 130;
#X obj -22 285 s accent;
#X msg 223 110 minvel 60;
#X obj 118 393 / 2;
#X msg 228 142 minvel \$1;
#X obj 311 86 r bonk_threshold;
#X obj 561 309 mvar 6;
#X msg 283 18 read ./default_template.txt;
#X connect 0 0 5 0;
#X connect 1 0 7 0;
#X connect 3 0 29 0;
#X connect 3 0 23 0;
#X connect 3 1 40 0;
#X connect 5 0 1 0;
#X connect 5 1 3 0;
#X connect 6 0 43 0;
#X connect 6 0 39 0;
#X connect 7 0 8 0;
#X connect 7 0 24 0;
#X connect 7 0 35 1;
#X connect 10 0 38 0;
#X connect 11 0 4 0;
#X connect 19 0 24 0;
#X connect 19 0 35 1;
#X connect 20 0 5 0;
#X connect 21 0 5 0;
#X connect 22 0 5 0;
#X connect 24 1 11 0;
#X connect 24 1 33 0;
#X connect 25 0 26 0;
#X connect 26 0 31 0;
#X connect 27 0 28 0;
#X connect 28 0 22 0;
#X connect 28 1 20 0;
#X connect 28 2 21 0;
#X connect 30 0 48 0;
#X connect 31 0 5 0;
#X connect 32 0 48 0;
#X connect 33 0 44 0;
#X connect 35 0 47 0;
#X connect 36 0 37 0;
#X connect 38 0 7 1;
#X connect 39 0 24 1;
#X connect 40 0 2 0;
#X connect 40 0 41 0;
#X connect 41 0 42 0;
#X connect 43 0 5 0;
#X connect 44 0 9 0;
#X connect 45 0 5 0;
#X connect 46 0 45 0;
#X connect 47 0 34 0;
#X connect 47 0 36 0;
#X connect 48 0 5 0;
