#N canvas 243 5 1041 758 12;
#X obj 36 37 r onoff;
#X obj 98 49 r ba;
#X obj 98 96 random;
#X obj 141 56 r sc;
#X obj 36 125 pipe;
#X obj 190 166 cosc;
#X obj 198 42 r sync;
#X obj 215 91 r ord;
#X obj 273 93 r ctrl;
#X obj 273 146 timer;
#X obj 190 235 s clap;
#X obj 490 326 s mycommand;
#X msg 490 288 pixon \$1 \$2;
#X msg 587 288 pixoff \$1 \$2;
#X obj 490 253 pack \$2 \$3;
#X obj 587 253 pack \$2 \$3;
#X obj 443 206 t b b;
#X obj 587 226 delay 100;
#X text 657 225 Flashing time [ms];
#X obj 434 130 r GUI;
#X obj 381 186 spigot 0;
#X obj 647 191 r flash;
#X connect 0 0 4 0;
#X connect 1 0 2 0;
#X connect 2 0 4 1;
#X connect 3 0 2 1;
#X connect 4 0 5 0;
#X connect 5 0 9 1;
#X connect 5 0 10 0;
#X connect 5 0 20 0;
#X connect 6 0 5 1;
#X connect 7 0 5 3;
#X connect 8 0 9 0;
#X connect 9 0 5 2;
#X connect 12 0 11 0;
#X connect 13 0 11 0;
#X connect 14 0 12 0;
#X connect 15 0 13 0;
#X connect 16 0 14 0;
#X connect 16 1 17 0;
#X connect 17 0 15 0;
#X connect 19 0 20 1;
#X connect 20 0 16 0;
#X connect 21 0 17 1;
