#N canvas 231 22 1049 758 12;
#X obj 36 37 r onoff;
#X obj 98 49 r ba;
#X obj 98 96 random;
#X obj 141 56 r sc;
#X obj 36 125 pipe;
#X obj 198 42 r sync;
#X obj 215 91 r ord;
#X obj 273 93 r ctrl;
#X obj 273 146 timer;
#X obj 190 235 s clap;
#X obj 490 326 s mycommand;
#X msg 627 288 pixoff \$1 \$2;
#X obj 627 253 pack \$2 \$3;
#X obj 443 206 t b b;
#X obj 627 226 delay 100;
#X text 697 225 Flashing time [ms];
#X obj 434 130 r GUI;
#X obj 381 186 spigot 0;
#X obj 687 191 r flash;
#X obj 190 166 flexosc;
#X obj 267 56 r master_ooi;
#X obj 602 56 r f_accent;
#X obj 682 57 r f_noaccent;
#X msg 647 100 80;
#X obj 490 253 pack \$2 \$3 \$4;
#X msg 490 288 pixel \$1 \$2 0 0 \$3;
#X msg 602 99 255;
#X connect 0 0 4 0;
#X connect 1 0 2 0;
#X connect 2 0 4 1;
#X connect 3 0 2 1;
#X connect 4 0 19 0;
#X connect 5 0 19 1;
#X connect 6 0 19 3;
#X connect 7 0 8 0;
#X connect 8 0 19 2;
#X connect 11 0 10 0;
#X connect 12 0 11 0;
#X connect 13 0 24 0;
#X connect 13 1 14 0;
#X connect 14 0 12 0;
#X connect 16 0 17 1;
#X connect 17 0 13 0;
#X connect 18 0 14 1;
#X connect 19 0 8 1;
#X connect 19 0 9 0;
#X connect 19 0 17 0;
#X connect 20 0 19 4;
#X connect 21 0 26 0;
#X connect 22 0 23 0;
#X connect 23 0 24 2;
#X connect 24 0 25 0;
#X connect 25 0 10 0;
#X connect 26 0 24 2;
