#N canvas 163 41 1117 758 12;
#X obj 273 75 r ctrl;
#X obj 487 380 s mycommand;
#X obj 757 253 pack \$2 \$3;
#X obj 443 206 t b b;
#X obj 757 226 delay 100;
#X text 827 225 Flashing time [ms];
#X obj 434 130 r GUI;
#X obj 817 191 r flash;
#X msg 757 288 pixoff \$1 \$2;
#X obj 273 126 s clap;
#X msg 599 86 127;
#X msg 650 85 64;
#X obj 491 241 pack \$2 \$3 \$4;
#X msg 490 326 pixel \$1 \$2 \$3 0 0;
#X obj 381 186 spigot 0;
#X obj 599 43 r f_accent;
#X obj 682 51 r f_noaccent;
#X obj 435 395 bng 15 250 50 0 empty empty empty 17 7 0 10 -262144
-1 -1;
#X obj 421 360 print;
#X connect 0 0 14 0;
#X connect 2 0 8 0;
#X connect 3 0 12 0;
#X connect 3 1 4 0;
#X connect 4 0 2 0;
#X connect 6 0 14 1;
#X connect 7 0 4 1;
#X connect 8 0 1 0;
#X connect 10 0 12 2;
#X connect 11 0 12 2;
#X connect 12 0 13 0;
#X connect 13 0 1 0;
#X connect 14 0 3 0;
#X connect 15 0 10 0;
#X connect 16 0 11 0;
