#N canvas 94 42 1186 758 12;
#X obj 296 29 bng 15 250 50 0 empty empty empty 0 -6 0 8 -262144 -1
-1;
#X obj 41 367 noise~;
#X floatatom 296 357 6 0 0 0 - - -;
#X floatatom 452 357 5 0 0 0 - - -;
#X floatatom 572 357 5 0 0 0 - - -;
#X obj 296 261 +;
#X obj 572 301 +;
#X obj 452 267 +;
#X obj 630 254 / 100;
#X text 302 341 frequency;
#X text 302 313 randomized;
#X text 304 326 center;
#X text 457 321 randomized;
#X text 458 335 bandwidth;
#X text 579 334 gain;
#X text 578 321 randomized;
#X text 179 452 pulse;
#X text 178 472 generator;
#X obj 457 13 r fs;
#X obj 525 13 r g;
#X obj 495 13 r B;
#X obj 611 13 r d_fs;
#X obj 673 13 r d_B;
#X obj 726 13 r d_g;
#X obj 346 186 random;
#X obj 490 186 random;
#X obj 630 192 random;
#X obj 490 248 -;
#X obj 630 282 -;
#X obj 346 248 -;
#X msg 296 192 1562;
#X msg 452 186 175;
#X msg 572 186 25;
#X msg 611 44 57;
#X msg 673 44 94;
#X msg 726 44 6;
#X obj 511 100 / 2;
#X obj 601 100 / 2;
#X obj 726 183 / 2;
#X text 320 24 Clap here!!!;
#X text 179 433 Noise;
#X floatatom 283 394 1 0 1 0 - - -;
#X obj 365 162 random;
#X obj 346 217 +;
#X obj 500 162 random;
#X obj 490 217 +;
#X obj 661 96 * 50;
#X obj 649 162 random;
#X obj 630 223 +;
#X obj 177 9 inlet;
#X obj 533 529 outlet~;
#X obj 41 398 twopz~ 0.2 0.22 1 0 -1;
#X msg 7 602 \; fs set 1364 \; d_fs set 333 \; B set 188 \; d_B set
54 \; g set 27.22 \; d_g set 9.76 \;;
#X msg 138 602 \; fs set 774 \; d_fs set 448 \; B set 139 \; d_B set
7 \; g set 13.83 \; d_g set 3.5 \;;
#X msg 402 602 \; fs set 775 \; d_fs set 39 \; B set 137 \; d_B set
15 \; g set 22.19 \; d_g set 3.55 \;;
#X msg 792 602 \; fs set 500 \; d_fs set 178 \; B set 91 \; d_B set
27 \; g set 33.78 \; d_g set 5.57 \;;
#X msg 923 602 \; fs set 984 \; d_fs set 396 \; B set 137 \; d_B set
36 \; g set 11.33 \; d_g set 1.42 \;;
#X obj 7 563 r P1;
#X obj 138 563 r P2;
#X obj 271 563 r P3;
#X obj 402 563 r A1;
#X obj 530 563 r A2;
#X obj 661 559 r A3;
#X obj 792 559 r A1+;
#X obj 923 563 r A1-;
#X obj 344 418 spigot;
#X floatatom 381 375 5 0 0 0 - - -;
#X obj 468 418 spigot;
#X obj 407 418 spigot;
#X obj 232 430 noiseq~;
#X obj 313 563 loadbang;
#X text 8 742 ----------------------------------------;
#X text 8 792 ----------------------------------------;
#X text 7 754 ClaPD $Revision: 1.1 $;
#X text 7 769 L. Peltola and C. Erkut;
#X text 7 783 TKK \, Acoustics LAB.;
#X obj 405 463 ./reson~;
#X msg 530 602 \; fs set 1355 \; d_fs set 57 \; B set 222 \; d_B set
53 \; g set 100 \; d_g set 2 \;;
#X obj 533 494 *~ 2;
#X msg 270 601 \; fs set 1562 \; d_fs set 57 \; B set 175 \; d_B set
94 \; g set 100 \; d_g set 1 \;;
#X msg 661 601 \; fs set 1352 \; d_fs set 12 \; B set 183 \; d_B set
40 \; g set 10.82 \; d_g set 1 \;;
#X obj 158 38 r main_clap;
#X connect 0 0 24 0;
#X connect 0 0 25 0;
#X connect 0 0 26 0;
#X connect 0 0 30 0;
#X connect 0 0 31 0;
#X connect 0 0 32 0;
#X connect 0 0 33 0;
#X connect 0 0 34 0;
#X connect 0 0 35 0;
#X connect 0 0 42 0;
#X connect 0 0 44 0;
#X connect 0 0 47 0;
#X connect 0 0 69 0;
#X connect 1 0 51 0;
#X connect 2 0 65 0;
#X connect 3 0 68 0;
#X connect 4 0 67 0;
#X connect 5 0 2 0;
#X connect 6 0 4 0;
#X connect 7 0 3 0;
#X connect 8 0 28 0;
#X connect 18 0 30 0;
#X connect 19 0 32 0;
#X connect 20 0 31 0;
#X connect 21 0 33 0;
#X connect 22 0 34 0;
#X connect 23 0 35 0;
#X connect 24 0 43 0;
#X connect 25 0 45 0;
#X connect 26 0 48 0;
#X connect 27 0 7 1;
#X connect 28 0 6 1;
#X connect 29 0 5 1;
#X connect 30 0 5 0;
#X connect 31 0 7 0;
#X connect 32 0 6 0;
#X connect 33 0 36 0;
#X connect 34 0 37 0;
#X connect 35 0 38 0;
#X connect 35 0 46 0;
#X connect 36 0 29 1;
#X connect 36 0 42 1;
#X connect 36 0 24 1;
#X connect 37 0 27 1;
#X connect 37 0 25 1;
#X connect 37 0 44 1;
#X connect 38 0 28 1;
#X connect 41 0 69 1;
#X connect 42 0 43 1;
#X connect 43 0 29 0;
#X connect 44 0 45 1;
#X connect 45 0 27 0;
#X connect 46 0 26 1;
#X connect 46 0 47 1;
#X connect 47 0 48 1;
#X connect 48 0 8 0;
#X connect 49 0 0 0;
#X connect 51 0 69 0;
#X connect 57 0 52 0;
#X connect 58 0 53 0;
#X connect 59 0 79 0;
#X connect 60 0 54 0;
#X connect 61 0 77 0;
#X connect 62 0 80 0;
#X connect 63 0 55 0;
#X connect 64 0 56 0;
#X connect 65 0 76 1;
#X connect 66 0 65 1;
#X connect 66 0 68 1;
#X connect 66 0 67 1;
#X connect 67 0 76 3;
#X connect 68 0 76 2;
#X connect 69 0 76 0;
#X connect 69 1 66 0;
#X connect 70 0 79 0;
#X connect 76 0 78 0;
#X connect 78 0 50 0;
#X connect 81 0 69 0;
#X connect 81 0 30 0;
#X connect 81 0 24 0;
#X connect 81 0 42 0;
#X connect 81 0 31 0;
#X connect 81 0 25 0;
#X connect 81 0 44 0;
#X connect 81 0 32 0;
#X connect 81 0 26 0;
#X connect 81 0 47 0;
